<?xml version="1.0" encoding="utf-8"?>
<!-- Generator: Adobe Illustrator 12.0.0, SVG Export Plug-In . SVG Version: 6.00 Build 51448)  -->
<!DOCTYPE svg PUBLIC "-//W3C//DTD SVG 1.1//EN" "http://www.w3.org/Graphics/SVG/1.1/DTD/svg11.dtd" [
	<!ENTITY ns_svg "http://www.w3.org/2000/svg">
	<!ENTITY ns_xlink "http://www.w3.org/1999/xlink">
]>
<svg  version="1.1" id="レイヤー_1" xmlns="&ns_svg;" xmlns:xlink="&ns_xlink;" width="200" height="150" viewBox="0 0 200 150"
	 overflow="visible" enable-background="new 0 0 200 150" xml:space="preserve">
<rect fill="#F5F5F5" width="200" height="150"/>
<g>
	<path fill="#D8D8D8" d="M148.022,66.839c-1.017-1.497-2.68-2.39-4.45-2.39H89.018c-3.038,0-5.753,1.95-6.795,4.886l-7.629,22.039
		c-0.235,0.681-0.778,1.21-1.466,1.428c-0.688,0.217-1.435,0.097-2.018-0.323l-1.13-0.813c-0.977-0.703-1.378-1.963-0.985-3.101
		l7.701-22.516c1.591-4.47,5.765-7.476,10.391-7.476h33.959l-1.139-3.603c-0.97-3.071-3.747-5.148-6.883-5.148H75.561
		c-2.244,0-4.284-1.335-5.238-3.427c-1.133-2.482-3.559-4.067-6.223-4.067h-9.673c-1.738,0-3.37,0.858-4.394,2.307
		c-1.02,1.45-1.305,3.315-0.766,5.018l16.392,53.333c0.882,2.788,3.471,4.684,6.396,4.684h58.485c2.837,0,5.369-1.786,6.32-4.46
		l11.81-31.247C149.278,70.249,149.036,68.336,148.022,66.839z"/>
</g>
</svg>
